<?xml version="1.0" encoding="utf-8"?>
<!-- Generator: Adobe Illustrator 21.0.0, SVG Export Plug-In . SVG Version: 6.00 Build 0)  -->
<svg version="1.1" id="Layer_1" xmlns="http://www.w3.org/2000/svg" xmlns:xlink="http://www.w3.org/1999/xlink" x="0px" y="0px"
	 viewBox="0 0 512 512" style="enable-background:new 0 0 512 512;" xml:space="preserve">
<style type="text/css">
	.st0{fill:#282828;}
</style>
<g>
	<g>
		<g>
			<path class="st0" d="M101.7,277.8c7.9,0,12.3-3,16.1-7.2l-6.5-6.6c-2.7,2.6-5.3,4.2-9,4.2c-6.1,0-10-4.8-10-10.9v-0.1
				c0-5.8,4-10.7,9.5-10.7c4,0,6.5,1.7,9,4.3l6.8-7.3c-3.7-4.1-8.3-6.6-15.7-6.6c-12,0-20.6,9.3-20.6,20.5v0.1
				C81.2,268.7,89.9,277.8,101.7,277.8z M139.8,277.8c-12.2,0-21.2-9-21.2-20.3v-0.1c0-11.3,9.1-20.5,21.4-20.5
				c12.2,0,21.2,9,21.2,20.3v0.1C161.1,268.6,152,277.8,139.8,277.8z M139.9,268.2c6.4,0,10.2-4.9,10.2-10.7v-0.1
				c0-5.8-4.2-10.9-10.4-10.9c-6.4,0-10.2,4.9-10.2,10.7v0.1C129.6,263.1,133.7,268.2,139.9,268.2z M179.5,277.6
				c8.5,0,15.1-4,15.1-12.7v-0.1c0-7.2-6.4-9.8-11.9-11.7c-4.3-1.5-8-2.5-8-4.7v-0.1c0-1.5,1.4-2.7,4.1-2.7c2.9,0,6.8,1.4,10.7,3.7
				l4.3-7.7c-4.3-2.9-9.7-4.6-14.7-4.6c-7.9,0-14.4,4.5-14.4,12.5v0.1c0,7.6,6.2,10.2,11.8,11.8c4.3,1.3,8.2,2.1,8.2,4.6v0.1
				c0,1.8-1.5,2.9-4.7,2.9c-3.7,0-8.2-1.6-12.4-4.7l-4.8,7.3C167.4,275.5,173.4,277.6,179.5,277.6z M211.6,277.6
				c3.7,0,6.5-0.9,8.8-2.3v-9c-1.7,0.9-3.6,1.4-5.5,1.4c-2.5,0-3.6-1.2-3.6-3.8v-16.8h9.3v-9.5h-9.3v-10.1h-11.2v10.1h-4.7v9.5h4.7
				v18.7C200.2,274.9,204.8,277.6,211.6,277.6z M225.8,276.9H237v-53.6h-11.2V276.9z M263.3,277.8c-12.2,0-21.2-9-21.2-20.3v-0.1
				c0-11.3,9.1-20.5,21.4-20.5c12.2,0,21.2,9,21.2,20.3v0.1C284.6,268.6,275.5,277.8,263.3,277.8z M263.4,268.2
				c6.4,0,10.2-4.9,10.2-10.7v-0.1c0-5.8-4.2-10.9-10.4-10.9c-6.4,0-10.2,4.9-10.2,10.7v0.1C253.1,263.1,257.2,268.2,263.4,268.2z
				 M307.8,277.8c7.9,0,12.3-3,16.1-7.2l-6.5-6.6c-2.7,2.6-5.3,4.2-9,4.2c-6.1,0-10-4.8-10-10.9v-0.1c0-5.8,4-10.7,9.5-10.7
				c4,0,6.5,1.7,9,4.3l6.8-7.3c-3.7-4.1-8.3-6.6-15.7-6.6c-12,0-20.6,9.3-20.6,20.5v0.1C287.3,268.7,296,277.8,307.8,277.8z
				 M327.6,276.9v-53.6h11.2v28.6l13.1-14.3h13.4l-15,15.5l15.5,23.9h-12.9l-10.1-16.2l-4,4.2v12H327.6z M384.4,277.8
				c-11.8,0-20.6-8.3-20.6-20.3v-0.1c0-11.2,8-20.5,19.5-20.5c13.1,0,19.2,10.2,19.2,21.4c0,0.9-0.1,1.9-0.1,2.9h-27.4
				c1.1,5.1,4.6,7.7,9.6,7.7c3.7,0,6.5-1.2,9.5-4l6.4,5.7C396.8,275,391.5,277.8,384.4,277.8z M374.8,254.1h16.8
				c-0.7-5-3.6-8.4-8.3-8.4C378.7,245.8,375.7,249.1,374.8,254.1z M407.3,276.9h11.2v-14.5c0-9.4,4.6-13.9,12-13.9h0.6v-11.7
				c-6.6-0.3-10.3,3.2-12.6,8.7v-7.9h-11.2V276.9z"/>
		</g>
	</g>
</g>
</svg>
